<?xml version="1.0" encoding="UTF-8"?>
<!DOCTYPE svg PUBLIC "-//W3C//DTD SVG 1.1//EN" "http://www.w3.org/Graphics/SVG/1.1/DTD/svg11.dtd">
<svg xmlns="http://www.w3.org/2000/svg" version="1.1" width="275px" height="183px" style="shape-rendering:geometricPrecision; text-rendering:geometricPrecision; image-rendering:optimizeQuality; fill-rule:evenodd; clip-rule:evenodd" xmlns:xlink="http://www.w3.org/1999/xlink">
<g><path style="opacity:1" fill="#fefefe" d="M -0.5,-0.5 C 91.1667,-0.5 182.833,-0.5 274.5,-0.5C 274.5,60.5 274.5,121.5 274.5,182.5C 182.833,182.5 91.1667,182.5 -0.5,182.5C -0.5,121.5 -0.5,60.5 -0.5,-0.5 Z"/></g>
<g><path style="opacity:1" fill="#e1e1e1" d="M 195.5,98.5 C 198.728,99.4137 202.061,99.7471 205.5,99.5C 205.5,88.5 205.5,77.5 205.5,66.5C 202.833,66.5 200.167,66.5 197.5,66.5C 197.666,73.175 197.5,79.8417 197,86.5C 196.487,85.4734 195.987,84.4734 195.5,83.5C 196.49,77.69 196.823,71.69 196.5,65.5C 199.833,65.5 203.167,65.5 206.5,65.5C 206.5,77.1667 206.5,88.8333 206.5,100.5C 202.351,101.08 198.684,100.414 195.5,98.5 Z"/></g>
<g><path style="opacity:1" fill="#656565" d="M 210.5,65.5 C 218.685,64.8975 226.685,65.7308 234.5,68C 239.743,71.1523 242.076,75.8189 241.5,82C 242.335,90.6783 238.669,96.345 230.5,99C 223.842,99.4996 217.175,99.6663 210.5,99.5C 210.5,88.1667 210.5,76.8333 210.5,65.5 Z"/></g>
<g><path style="opacity:1" fill="#626262" d="M 33.5,65.5 C 36.5,65.5 39.5,65.5 42.5,65.5C 42.9105,73.3856 44.4105,81.0523 47,88.5C 49.08,80.9335 50.58,73.2668 51.5,65.5C 54.5,65.5 57.5,65.5 60.5,65.5C 61.8895,73.5075 63.3895,81.5075 65,89.5C 66.9855,81.9272 68.6522,74.2606 70,66.5C 72.7191,65.5562 75.5525,65.2229 78.5,65.5C 76.1318,76.6755 73.1318,87.6755 69.5,98.5C 66.5719,99.4841 63.5719,99.8174 60.5,99.5C 59.1894,92.1134 57.6894,84.7801 56,77.5C 53.7971,84.6809 52.2971,92.0142 51.5,99.5C 48.2234,99.7839 45.0567,99.4505 42,98.5C 38.856,87.5701 36.0227,76.5701 33.5,65.5 Z"/></g>
<g><path style="opacity:1" fill="#5d5d5d" d="M 81.5,66.5 C 84.1667,66.5 86.8333,66.5 89.5,66.5C 89.5,77.5 89.5,88.5 89.5,99.5C 86.8333,99.5 84.1667,99.5 81.5,99.5C 81.5,88.5 81.5,77.5 81.5,66.5 Z"/></g>
<g><path style="opacity:1" fill="#848484" d="M 81.5,66.5 C 84.2869,65.5233 87.2869,65.19 90.5,65.5C 90.8281,77.0123 90.4948,88.3456 89.5,99.5C 89.5,88.5 89.5,77.5 89.5,66.5C 86.8333,66.5 84.1667,66.5 81.5,66.5 Z"/></g>
<g><path style="opacity:1" fill="#636363" d="M 94.5,65.5 C 101.833,65.5 109.167,65.5 116.5,65.5C 116.5,67.8333 116.5,70.1667 116.5,72.5C 112.167,72.5 107.833,72.5 103.5,72.5C 103.5,74.5 103.5,76.5 103.5,78.5C 107.167,78.5 110.833,78.5 114.5,78.5C 114.5,80.8333 114.5,83.1667 114.5,85.5C 110.833,85.5 107.167,85.5 103.5,85.5C 103.5,87.5 103.5,89.5 103.5,91.5C 107.833,91.5 112.167,91.5 116.5,91.5C 116.5,94.1667 116.5,96.8333 116.5,99.5C 109.167,99.5 101.833,99.5 94.5,99.5C 94.5,88.1667 94.5,76.8333 94.5,65.5 Z"/></g>
<g><path style="opacity:1" fill="#606060" d="M 120.5,65.5 C 123.5,65.5 126.5,65.5 129.5,65.5C 129.5,74.1667 129.5,82.8333 129.5,91.5C 132.898,91.1796 136.232,91.513 139.5,92.5C 138.399,94.6416 137.399,96.8083 136.5,99C 131.177,99.4994 125.844,99.666 120.5,99.5C 120.5,88.1667 120.5,76.8333 120.5,65.5 Z"/></g>
<g><path style="opacity:1" fill="#616161" d="M 151.5,65.5 C 154.833,65.5 158.167,65.5 161.5,65.5C 165.096,76.6177 169.096,87.6177 173.5,98.5C 168.385,100.568 164.718,99.2346 162.5,94.5C 158.541,93.3401 154.541,93.1735 150.5,94C 149.74,95.4411 149.074,96.9411 148.5,98.5C 145.5,99.8333 142.5,99.8333 139.5,98.5C 143.904,87.6177 147.904,76.6177 151.5,65.5 Z"/></g>
<g><path style="opacity:1" fill="#c7c7c7" d="M 185.5,66.5 C 182.5,66.5 179.5,66.5 176.5,66.5C 176.5,77.5 176.5,88.5 176.5,99.5C 175.505,88.3456 175.172,77.0123 175.5,65.5C 179.042,65.1872 182.375,65.5206 185.5,66.5 Z"/></g>
<g><path style="opacity:1" fill="#5e5e5e" d="M 185.5,66.5 C 188.833,72.1667 192.167,77.8333 195.5,83.5C 195.987,84.4734 196.487,85.4734 197,86.5C 197.5,79.8417 197.666,73.175 197.5,66.5C 200.167,66.5 202.833,66.5 205.5,66.5C 205.5,77.5 205.5,88.5 205.5,99.5C 202.061,99.7471 198.728,99.4137 195.5,98.5C 192.257,92.0736 188.757,85.7402 185,79.5C 184.5,86.1583 184.334,92.825 184.5,99.5C 181.833,99.5 179.167,99.5 176.5,99.5C 176.5,88.5 176.5,77.5 176.5,66.5C 179.5,66.5 182.5,66.5 185.5,66.5 Z"/></g>
<g><path style="opacity:1" fill="#fbfbfb" d="M 219.5,73.5 C 230.717,72.5541 234.884,77.5541 232,88.5C 228.556,91.8826 224.39,93.2159 219.5,92.5C 219.5,86.1667 219.5,79.8333 219.5,73.5 Z"/></g>
<g><path style="opacity:1" fill="#e8e8e8" d="M 155.5,76.5 C 156.497,76.4701 157.164,76.9701 157.5,78C 158.401,80.8711 159.401,83.7044 160.5,86.5C 157.833,87.8333 155.167,87.8333 152.5,86.5C 153.813,83.2455 154.813,79.9122 155.5,76.5 Z"/></g>
<g><path style="opacity:1" fill="#686868" d="M 180.5,107.5 C 184.991,106.259 186.324,106.259 184.5,107.5C 184.813,110.247 184.48,112.914 183.5,115.5C 183.08,112.384 182.08,109.717 180.5,107.5 Z"/></g>
<g><path style="opacity:1" fill="#484848" d="M 137.5,106.5 C 138.473,108.948 138.806,111.615 138.5,114.5C 143.5,115.003 143.167,115.336 137.5,115.5C 137.5,112.5 137.5,109.5 137.5,106.5 Z"/></g>
<g><path style="opacity:1" fill="#5b5b5b" d="M 221.5,106.5 C 223.369,108.635 224.036,111.302 223.5,114.5C 224.552,114.351 225.552,114.517 226.5,115C 224.866,115.494 223.199,115.66 221.5,115.5C 221.5,112.5 221.5,109.5 221.5,106.5 Z"/></g>
<g><path style="opacity:1" fill="#636363" d="M 208.5,106.5 C 210.369,108.635 211.036,111.302 210.5,114.5C 211.873,114.343 213.207,114.51 214.5,115C 212.527,115.495 210.527,115.662 208.5,115.5C 208.5,112.5 208.5,109.5 208.5,106.5 Z"/></g>
<g><path style="opacity:1" fill="#686868" d="M 108.5,106.5 C 115.251,106.38 117.251,109.214 114.5,115C 112.527,115.495 110.527,115.662 108.5,115.5C 108.5,112.5 108.5,109.5 108.5,106.5 Z"/></g>
<g><path style="opacity:1" fill="#f1f1f1" d="M 110.5,108.5 C 115.394,109.54 115.727,111.54 111.5,114.5C 110.534,112.604 110.201,110.604 110.5,108.5 Z"/></g>
<g><path style="opacity:1" fill="#505050" d="M 168.5,106.5 C 174.167,106.664 174.5,106.997 169.5,107.5C 169.5,108.5 169.5,109.5 169.5,110.5C 173.5,110.833 173.5,111.167 169.5,111.5C 169.5,112.5 169.5,113.5 169.5,114.5C 174.5,115.003 174.167,115.336 168.5,115.5C 168.5,112.5 168.5,109.5 168.5,106.5 Z"/></g>
<g><path style="opacity:1" fill="#505050" d="M 234.5,106.5 C 240.167,106.664 240.5,106.997 235.5,107.5C 235.5,108.5 235.5,109.5 235.5,110.5C 239.5,110.833 239.5,111.167 235.5,111.5C 235.5,112.5 235.5,113.5 235.5,114.5C 240.5,115.003 240.167,115.336 234.5,115.5C 234.5,112.5 234.5,109.5 234.5,106.5 Z"/></g>
<g><path style="opacity:1" fill="#5c5c5c" d="M 123.5,106.5 C 125.199,106.34 126.866,106.506 128.5,107C 127.552,107.483 126.552,107.649 125.5,107.5C 125.5,108.5 125.5,109.5 125.5,110.5C 129.5,110.833 129.5,111.167 125.5,111.5C 125.5,112.5 125.5,113.5 125.5,114.5C 126.873,114.343 128.207,114.51 129.5,115C 127.527,115.495 125.527,115.662 123.5,115.5C 123.5,112.5 123.5,109.5 123.5,106.5 Z"/></g>
<g><path style="opacity:1" fill="#646464" d="M 149.5,106.5 C 150.675,106.281 151.675,106.614 152.5,107.5C 154.676,114.141 156.01,113.808 156.5,106.5C 157.5,106.5 158.5,106.5 159.5,106.5C 159.665,109.518 159.498,112.518 159,115.5C 158.667,113.167 158.333,110.833 158,108.5C 157.115,111 155.948,113.333 154.5,115.5C 153.573,113.887 152.739,112.221 152,110.5C 151.798,112.256 151.298,113.922 150.5,115.5C 149.516,112.572 149.183,109.572 149.5,106.5 Z"/></g>
<g><path style="opacity:1" fill="#676767" d="M 195.5,106.5 C 196.675,106.281 197.675,106.614 198.5,107.5C 199.305,109.915 200.305,112.249 201.5,114.5C 201.167,114.833 200.833,115.167 200.5,115.5C 199.532,114.511 198.365,113.844 197,113.5C 195.415,114.245 193.915,114.745 192.5,115C 193.929,112.31 194.929,109.477 195.5,106.5 Z"/></g>
<g><path style="opacity:1" fill="#4e4e4e" d="M 95.5,106.5 C 101.167,106.664 101.5,106.997 96.5,107.5C 96.5,108.5 96.5,109.5 96.5,110.5C 101.833,110.833 101.833,111.167 96.5,111.5C 96.5,112.5 96.5,113.5 96.5,114.5C 101.5,115.003 101.167,115.336 95.5,115.5C 95.5,112.5 95.5,109.5 95.5,106.5 Z"/></g>
</svg>
